<?xml version="1.0" encoding="utf-8"?>
<!-- Generator: Adobe Illustrator 21.1.0, SVG Export Plug-In . SVG Version: 6.00 Build 0)  -->
<svg version="1.1" id="Layer_1" xmlns="http://www.w3.org/2000/svg" xmlns:xlink="http://www.w3.org/1999/xlink" x="0px" y="0px"
	 viewBox="0 0 141.7 141.7" style="enable-background:new 0 0 141.7 141.7;" xml:space="preserve">
<style type="text/css">
	.st0{clip-path:url(#SVGID_2_);fill:#F15C29;}
	.st1{clip-path:url(#SVGID_2_);fill:#FFFFFF;}
	.st2{opacity:0.5;clip-path:url(#SVGID_2_);fill:#FFFFFF;}
</style>
<g>
	<defs>
		<path id="SVGID_1_" d="M135.8,141.7H5.9c-3.3,0-5.9-2.6-5.9-5.9V5.9C0,2.6,2.6,0,5.9,0h129.9c3.3,0,5.9,2.6,5.9,5.9v129.9
			C141.7,139.1,139.1,141.7,135.8,141.7z"/>
	</defs>
	<clipPath id="SVGID_2_">
		<use xlink:href="#SVGID_1_"  style="overflow:visible;"/>
	</clipPath>
	<path class="st0" d="M135.8,141.7H5.9c-3.3,0-5.9-2.6-5.9-5.9V5.9C0,2.6,2.6,0,5.9,0h129.9c3.3,0,5.9,2.6,5.9,5.9v129.9
		C141.7,139.1,139.1,141.7,135.8,141.7z"/>
	<path class="st1" d="M53.6,113.1c-4.7,0-8-0.8-9.9-2.4c-1.8-1.6-2.8-4.7-2.8-9.4V44.5c0-4.8,1-8.2,2.8-10.2
		c1.8-1.9,5.2-2.9,10.1-2.9H69c7.4,0,13.6,1.5,18.8,4.6c6.2,3.6,9.4,8.9,9.4,15.8c0,8.8-3.2,14.8-9.5,18c-0.1,0.1-0.1,0.1-0.1,0.2
		c0,0.1,0.1,0.2,0.2,0.3c4.7,1.5,8,3.6,10.1,6.5s3.1,6.8,3.1,11.8c0,8.3-2.9,14.6-8.6,18.9c-5.1,3.8-11.9,5.7-20.5,5.7H53.6z
		 M59.6,47.5V63c0,0.1,0.1,0.3,0.3,0.3h7.8c3.6,0,6.2-0.4,7.7-1.3c2.1-1.2,3.1-3.4,3.1-6.7c0-5.3-3.6-8-10.8-8h-7.9
		C59.6,47.3,59.6,47.4,59.6,47.5z M59.6,78.1v18.7c0,0.1,0.1,0.3,0.3,0.3h9.1c4,0,6.9-0.5,8.9-1.6c2.5-1.4,3.8-4,3.8-7.6
		c0-4.3-1.2-7.1-3.7-8.5c-1.8-1-4.9-1.6-9.3-1.6h-8.8C59.6,77.9,59.6,77.9,59.6,78.1z"/>
	<path class="st2" d="M0,84.6v3c21.5,3.5,37.9,22.1,37.9,44.6c0,3.3-0.4,6.4-1,9.5H40c0.6-3.1,0.9-6.2,0.9-9.5
		C40.9,108.2,23.1,88.1,0,84.6z"/>
	<path class="st2" d="M141.7,88.6v-2.1c0,0,0,0,0,0c-17,0-30.9-13.8-30.9-30.9c0-17,13.8-30.9,30.9-30.9c0,0,0,0,0,0v-2.1
		c0,0,0,0,0,0c-18.1,0-32.9,14.8-32.9,32.9S123.6,88.6,141.7,88.6C141.7,88.6,141.7,88.6,141.7,88.6z"/>
</g>
</svg>
