<svg width="35" height="35" viewBox="0 0 35 35" fill="none" xmlns="http://www.w3.org/2000/svg">
<circle cx="17.5" cy="17.5" r="17.5" fill="#4E2C28"/>
<g clip-path="url(#clip0_2_213)">
<path d="M19.2928 13.6741H18.8665V9.68253C18.7599 8.26616 17.6303 7.12876 16.2022 7H16.1383C16.0743 7 16.0104 7 15.9464 7C15.8825 7 15.8186 7 15.7546 7H13.7298V8.03009V9.68253H15.5841C15.9038 9.68253 16.1809 9.94005 16.2022 10.262V10.3263V12.8372V13.6741H13.7511V16.3567H16.2022V21.829C16.2022 24.7047 17.1827 27.3443 18.8452 29.4474H18.8665V16.3567H21.3176V13.6741H19.2928Z" fill="white"/>
</g>
<defs>
<clipPath id="clip0_2_213">
<rect width="22.4" height="22.4" fill="white" transform="translate(6.29999 7)"/>
</clipPath>
</defs>
</svg>
