<svg width="30" height="30" viewBox="0 0 30 30" fill="none" xmlns="http://www.w3.org/2000/svg">
<path d="M27.3988 12.4762C27.2795 12.4531 27.1588 12.4424 27.038 12.4443H6.47263L6.92106 12.1954C7.35939 11.9478 7.75816 11.6108 8.0995 11.1997L13.8666 4.31702C14.6261 3.45171 14.7537 2.05969 14.169 1.01882C13.4885 -0.0903599 12.1834 -0.331191 11.2539 0.480992C11.1788 0.546644 11.1075 0.618209 11.0404 0.695219L0.611723 13.1413C-0.203277 14.1128 -0.203994 15.6889 0.610093 16.6616C0.610615 16.6622 0.611202 16.6629 0.611723 16.6635L11.0404 29.1095C11.856 30.0803 13.1766 30.0781 13.9901 29.1046C14.0541 29.028 14.1138 28.9465 14.169 28.8606C14.7537 27.8197 14.6261 26.4277 13.8666 25.5624L8.10993 18.6673C7.80392 18.3017 7.45208 17.9951 7.06707 17.7587L6.44135 17.4227H26.9232C27.9887 17.4699 28.9235 16.5817 29.1237 15.3318C29.3081 13.9748 28.5358 12.6963 27.3988 12.4762Z" fill="#F95B16"/>
</svg>
