<svg width="25" height="25" viewBox="0 0 25 25" fill="none" xmlns="http://www.w3.org/2000/svg">
<path fill-rule="evenodd" clip-rule="evenodd" d="M22 12.5C22 12.822 21.8749 13.1308 21.6522 13.3585C21.4296 13.5862 21.1275 13.7141 20.8126 13.7141L7.05579 13.7141L12.1543 18.9248C12.2647 19.0377 12.3523 19.1717 12.4121 19.3192C12.4718 19.4667 12.5026 19.6248 12.5026 19.7844C12.5026 19.944 12.4718 20.1021 12.4121 20.2496C12.3523 20.3971 12.2647 20.5311 12.1543 20.644C12.044 20.7568 11.9129 20.8464 11.7687 20.9075C11.6244 20.9686 11.4698 21 11.3137 21C11.1576 21 11.003 20.9686 10.8587 20.9075C10.7145 20.8464 10.5834 20.7568 10.473 20.644L3.34883 13.3596C3.23826 13.2468 3.15053 13.1128 3.09067 12.9653C3.03081 12.8178 3 12.6597 3 12.5C3 12.3403 3.03081 12.1822 3.09067 12.0347C3.15053 11.8872 3.23826 11.7532 3.34883 11.6404L10.473 4.35604C10.5834 4.24316 10.7145 4.15362 10.8587 4.09253C11.003 4.03144 11.1576 4 11.3137 4C11.4698 4 11.6244 4.03144 11.7687 4.09253C11.9129 4.15362 12.044 4.24316 12.1544 4.35604C12.3773 4.58401 12.5026 4.8932 12.5026 5.2156C12.5026 5.37524 12.4718 5.53331 12.4121 5.68079C12.3523 5.82827 12.2647 5.96228 12.1544 6.07516L7.05579 11.2859L20.8126 11.2859C21.1275 11.2859 21.4296 11.4138 21.6522 11.6415C21.8749 11.8692 22 12.178 22 12.5Z" fill="#34394B"/>
</svg>