<svg width="25" height="25" viewBox="0 0 25 25" fill="none" xmlns="http://www.w3.org/2000/svg">
<path d="M22.9004 11.3354C22.3253 11.3354 21.8588 10.8688 21.8588 10.2938C21.8588 7.3719 20.7212 4.62608 18.6556 2.55927C18.2484 2.15206 18.2484 1.49383 18.6556 1.08642C19.0628 0.679201 19.7212 0.679201 20.1284 1.08642C22.588 3.54576 23.942 6.81571 23.942 10.2938C23.942 10.8688 23.4754 11.3354 22.9004 11.3354Z" fill="#F15C29"/>
<path d="M2.06699 11.3354C1.49212 11.3354 1.02539 10.8688 1.02539 10.2938C1.02539 6.81571 2.37961 3.54576 4.83894 1.08642C5.24616 0.679201 5.90458 0.679201 6.3118 1.08642C6.71921 1.49383 6.71921 2.15206 6.3118 2.55927C4.24614 4.62493 3.10879 7.3719 3.10879 10.2938C3.10879 10.8688 2.64206 11.3354 2.06699 11.3354Z" fill="#F15C29"/>
<path d="M22.2536 17.6178C20.6785 16.2865 19.7754 14.3406 19.7754 12.2791V9.375C19.7754 5.70946 17.0525 2.67506 13.5254 2.16675V1.0416C13.5254 0.465584 13.0587 0 12.4838 0C11.9087 0 11.442 0.465584 11.442 1.0416V2.16675C7.91396 2.67506 5.19199 5.70946 5.19199 9.375V12.2791C5.19199 14.3406 4.28886 16.2865 2.70461 17.626C2.2993 17.9729 2.06699 18.4771 2.06699 19.0104C2.06699 20.0157 2.88467 20.8334 3.89003 20.8334H21.0775C22.0827 20.8334 22.9004 20.0157 22.9004 19.0104C22.9004 18.4771 22.6681 17.9729 22.2536 17.6178Z" fill="#F15C29"/>
<path d="M12.4838 25C14.3701 25 15.9483 23.6551 16.3109 21.875H8.65668C9.01907 23.6551 10.5972 25 12.4838 25Z" fill="#F15C29"/>
</svg>
