<svg width="14" height="14" viewBox="0 0 14 14" fill="none" xmlns="http://www.w3.org/2000/svg">
<path d="M13.7942 2.3044L11.6949 0.205101C11.63 0.139971 11.5529 0.0883194 11.4679 0.0531198C11.383 0.0179201 11.2919 -0.000132614 11.2 7.33372e-07H2.8C2.70807 -9.42375e-05 2.61702 0.017976 2.53209 0.0531735C2.44716 0.088371 2.37002 0.140002 2.3051 0.205101L0.205801 2.3044C0.140461 2.36932 0.0886319 2.44654 0.0533084 2.53161C0.0179848 2.61667 -0.000133316 2.70789 7.38481e-07 2.8V11.9C7.38481e-07 12.6721 0.627901 13.3 1.4 13.3H12.6C13.3721 13.3 14 12.6721 14 11.9V2.8C14.0002 2.70788 13.9821 2.61664 13.9468 2.53156C13.9115 2.44649 13.8596 2.36927 13.7942 2.3044ZM3.0898 1.4H10.9102L11.6102 2.1H2.3898L3.0898 1.4ZM7 11.2L3.5 7.7H5.6V5.6H8.4V7.7H10.5L7 11.2Z" fill="#B0CB1F"/>
</svg>
