<svg width="44" height="44" viewBox="0 0 44 44" fill="none" xmlns="http://www.w3.org/2000/svg">
<circle cx="22" cy="22" r="22" fill="#F15C29"/>
<path d="M26.8181 29.9999C26.1209 29.9999 25.1416 29.7477 23.6752 28.9284C21.8919 27.9284 20.5126 27.0052 18.739 25.2362C17.029 23.5273 16.1969 22.4208 15.0322 20.3015C13.7165 17.9086 13.9408 16.6543 14.1915 16.1183C14.4901 15.4775 14.9308 15.0943 15.5004 14.714C15.824 14.502 16.1664 14.3203 16.5233 14.1711C16.559 14.1557 16.5922 14.1411 16.6219 14.1279C16.7987 14.0482 17.0665 13.9279 17.4058 14.0565C17.6323 14.1415 17.8344 14.3154 18.1508 14.6279C18.7998 15.2679 19.6866 16.6933 20.0137 17.3933C20.2334 17.8651 20.3787 18.1765 20.3791 18.5258C20.3791 18.9347 20.1734 19.2501 19.9237 19.5904C19.8769 19.6544 19.8305 19.7155 19.7855 19.7747C19.5137 20.1319 19.4541 20.2351 19.4933 20.4194C19.573 20.7898 20.1669 21.8923 21.143 22.8662C22.1191 23.8401 23.1898 24.3966 23.5616 24.4759C23.7538 24.5169 23.8591 24.4548 24.2277 24.1734C24.2805 24.133 24.3348 24.0912 24.3916 24.0494C24.7723 23.7662 25.0731 23.5659 25.4723 23.5659H25.4745C25.822 23.5659 26.1195 23.7166 26.6124 23.9651C27.2552 24.2894 28.7235 25.1648 29.3674 25.8145C29.6806 26.1302 29.8553 26.3316 29.9406 26.5577C30.0692 26.898 29.9481 27.1648 29.8692 27.3434C29.856 27.373 29.8413 27.4055 29.826 27.4416C29.6756 27.7979 29.4928 28.1396 29.2799 28.4623C28.9002 29.0302 28.5156 29.4699 27.8734 29.7688C27.5437 29.9248 27.1828 30.0038 26.8181 29.9999Z" fill="white"/>
</svg>
