<svg width="16" height="16" viewBox="0 0 16 16" fill="none" xmlns="http://www.w3.org/2000/svg">
<path d="M14 11.9999H5.6729L2.17281 4.00001H0V3H2.82717L6.32713 11H14V11.9999Z" fill="white"/>
<path d="M9.00006 14.5C9.00006 15.328 8.32799 15.9999 7.50001 15.9999C6.67144 15.9999 6.00003 15.328 6.00003 14.5C6.00003 13.6718 6.67141 13 7.50001 13C8.32799 13 9.00006 13.6718 9.00006 14.5Z" fill="white"/>
<path d="M14 14.5C14 15.328 13.3281 15.9999 12.5001 15.9999C11.6719 15.9999 11.0001 15.328 11.0001 14.5C11.0001 13.6718 11.6719 13 12.5001 13C13.3281 13 14 13.6718 14 14.5Z" fill="white"/>
<path d="M12.5001 8.00002C10.5469 8.00002 8.89738 6.74222 8.27639 5H4.99997L7.00005 10H14L15.1544 7.11526C14.4083 7.66414 13.4953 8.00002 12.5001 8.00002Z" fill="white"/>
<path d="M12.5001 0C10.5675 0 9 1.56738 9 3.50003C9 5.43258 10.5674 7.00006 12.5001 7.00006C14.4326 7.00006 16 5.43261 16 3.50003C16 1.56738 14.4326 0 12.5001 0ZM11.9698 5.26754L11.2627 4.56061L10.2021 3.50003L10.9093 2.79301L11.9698 3.85352L14.091 1.73252L14.7978 2.43951L11.9698 5.26754Z" fill="white"/>
</svg>
