<svg width="16" height="16" viewBox="0 0 16 16" fill="none" xmlns="http://www.w3.org/2000/svg">
<path d="M7 14C7.55228 14 8 13.5523 8 13C8 12.4477 7.55228 12 7 12C6.44772 12 6 12.4477 6 13C6 13.5523 6.44772 14 7 14Z" fill="white"/>
<path d="M11.6667 14C12.219 14 12.6667 13.5523 12.6667 13C12.6667 12.4477 12.219 12 11.6667 12C11.1144 12 10.6667 12.4477 10.6667 13C10.6667 13.5523 11.1144 14 11.6667 14Z" fill="white"/>
<path d="M14 4.66667H4.88931L4.11998 2.82C4.01899 2.57677 3.84805 2.36899 3.62884 2.223C3.40963 2.07702 3.15202 1.99941 2.88865 2H1.33331V3.33334H2.88931L6.05131 10.9233C6.15465 11.1713 6.39798 11.3333 6.66665 11.3333H12C12.278 11.3333 12.5266 11.1607 12.6246 10.9013L14.6246 5.568C14.6621 5.46707 14.6746 5.35857 14.6612 5.25175C14.6477 5.14493 14.6087 5.04294 14.5473 4.95445C14.486 4.86596 14.4042 4.79358 14.3089 4.74348C14.2136 4.69338 14.1076 4.66703 14 4.66667ZM11.3333 8.66667H9.99998V10H8.66665V8.66667H7.33331V7.33334H8.66665V6H9.99998V7.33334H11.3333V8.66667Z" fill="white"/>
</svg>
