<svg width="25" height="24" viewBox="0 0 25 24" fill="none" xmlns="http://www.w3.org/2000/svg">
<path d="M24.6322 5.16474C24.4091 4.77824 24.0897 4.45615 23.705 4.22989C23.3204 4.00363 22.8837 3.88093 22.4375 3.87374H5.91276L5.16398 0.956093C5.08833 0.674448 4.91954 0.426713 4.68512 0.253239C4.4507 0.0797657 4.16444 -0.00922643 3.87299 0.000757143H1.291C0.948602 0.000757143 0.620232 0.136772 0.378124 0.378881C0.136015 0.620989 0 0.949359 0 1.29175C0 1.63415 0.136015 1.96251 0.378124 2.20462C0.620232 2.44673 0.948602 2.58275 1.291 2.58275H2.89183L6.45498 15.8284C6.53063 16.11 6.69941 16.3577 6.93383 16.5312C7.16826 16.7047 7.45451 16.7937 7.74597 16.7837H19.3649C19.6033 16.783 19.8369 16.7162 20.0397 16.5909C20.2425 16.4656 20.4066 16.2865 20.5139 16.0736L24.7484 7.60472C24.9319 7.22002 25.0174 6.79587 24.9971 6.37012C24.9768 5.94437 24.8514 5.53025 24.6322 5.16474Z" fill="#F95B16"/>
<path d="M7.10043 23.2385C8.16993 23.2385 9.03693 22.3715 9.03693 21.302C9.03693 20.2325 8.16993 19.3655 7.10043 19.3655C6.03094 19.3655 5.16394 20.2325 5.16394 21.302C5.16394 22.3715 6.03094 23.2385 7.10043 23.2385Z" fill="#F95B16"/>
<path d="M20.0105 23.2385C21.08 23.2385 21.947 22.3715 21.947 21.302C21.947 20.2325 21.08 19.3655 20.0105 19.3655C18.941 19.3655 18.074 20.2325 18.074 21.302C18.074 22.3715 18.941 23.2385 20.0105 23.2385Z" fill="#F95B16"/>
</svg>
