<svg width="15" height="14" viewBox="0 0 15 14" fill="none" xmlns="http://www.w3.org/2000/svg">
<path d="M12.5041 4.73699L9.24384 1.51507L10.3178 0.441096C10.6119 0.147032 10.9732 0 11.4018 0C11.8298 0 12.1909 0.147032 12.4849 0.441096L13.5589 1.51507C13.853 1.80913 14.0064 2.16405 14.0192 2.57984C14.032 2.99511 13.8913 3.34977 13.5973 3.64384L12.5041 4.73699ZM0.767123 14C0.549772 14 0.367708 13.9264 0.220932 13.7791C0.0736439 13.6323 0 13.4502 0 13.2329V11.0658C0 10.9635 0.0191781 10.8645 0.0575343 10.7689C0.0958904 10.6727 0.153425 10.5863 0.230137 10.5096L8.13151 2.60822L11.3918 5.86849L3.49041 13.7699C3.4137 13.8466 3.32752 13.9041 3.23189 13.9425C3.13574 13.9808 3.03653 14 2.93425 14H0.767123Z" fill="#B0CB1F"/>
</svg>
