<svg width="20" height="20" viewBox="0 0 20 20" fill="none" xmlns="http://www.w3.org/2000/svg">
<circle cx="10" cy="10" r="10" fill="#4E2C28"/>
<path d="M11.76 11.8286V4.28571H8.9143V11.8286H11.76ZM10.3543 16.0457C10.8 16.0457 11.2457 15.8743 11.6057 15.5143C11.9143 15.2057 12.12 14.8286 12.12 14.2628C12.12 13.6971 11.9143 13.32 11.6229 13.0286C11.2457 12.6514 10.7829 12.48 10.3543 12.48C9.97716 12.48 9.5143 12.6 9.10287 13.0114C8.88001 13.2343 8.57144 13.6457 8.57144 14.2628C8.57144 14.88 8.88001 15.2914 9.10287 15.5143C9.5143 15.9257 9.97716 16.0457 10.3543 16.0457Z" fill="white"/>
</svg>
