<svg width="25" height="25" viewBox="0 0 25 25" fill="none" xmlns="http://www.w3.org/2000/svg">
<g clip-path="url(#clip0_205_189)">
<path d="M24.6869 12.2072C25.14 11.7087 25.0963 10.9448 24.5891 10.5013L13.4163 0.725047C12.9092 0.281559 12.0961 0.290849 11.5996 0.745991L0.388822 11.0226C-0.107637 11.4777 -0.132003 12.2407 0.334873 12.7259L0.615944 13.0187C1.08225 13.504 1.83598 13.5618 2.29838 13.1475L3.13621 12.3972V23.3819C3.13621 24.0558 3.6823 24.6014 4.35576 24.6014H8.72577C9.39924 24.6014 9.94532 24.0558 9.94532 23.3819V15.697H15.5193V23.3819C15.5096 24.0553 15.9915 24.6009 16.665 24.6009H21.2961C21.9695 24.6009 22.5156 24.0553 22.5156 23.3814V12.5519C22.5156 12.5519 22.7471 12.7546 23.0325 13.0055C23.3175 13.256 23.9161 13.0552 24.3693 12.5563L24.6869 12.2072Z" fill="#4E2C28"/>
</g>
<defs>
<clipPath id="clip0_205_189">
<rect width="25" height="25" fill="white"/>
</clipPath>
</defs>
</svg>
