<?xml version="1.0" encoding="utf-8"?>
<!-- Generator: Adobe Illustrator 21.1.0, SVG Export Plug-In . SVG Version: 6.00 Build 0)  -->
<svg version="1.1" id="Layer_1" xmlns="http://www.w3.org/2000/svg" xmlns:xlink="http://www.w3.org/1999/xlink" x="0px" y="0px"
	 viewBox="0 0 385.5 385.5" fill="#A7A7A7" style="enable-background:new 0 0 385.5 385.5;" xml:space="preserve">
<g>
	<path d="M234.7,384.8c-1.4-1.7-3.2-3.2-4.1-5.1c-5.6-11.6-11.9-22.8-14.1-35.7c-1-5.5-1.7-11.1-1.9-16.7c-0.3-13-0.1-26-0.1-39
		c0-17.6,12.2-30.2,29.9-30.9c0.9,0,1.7-0.1,2.8-0.2c0-18.4,0-36.7,0-55.5c-4.4,0-8.7,0-13,0c-11.3,0-17.9-6.7-18-18
		c0-5.2-0.1-10.5,0-15.7c0.2-10.1,6.9-17,17-17c23.4-0.1,46.7-0.1,70.1,0c10.2,0,16.8,6.9,16.9,17c0,5.7,0.1,11.5,0,17.2
		c-0.1,9.4-6.8,16.3-16.3,16.4c-5.2,0.1-10.4,0-15.8,0c0,9.5,0,18.5,0,28c6-2.1,11.8-2.5,17.5,0.3c5.7,2.8,9.2,7.5,11.1,13.7
		c5.4-2.3,10.8-3,16.4-0.8c5.5,2.1,9.3,6.1,11.9,11.5c5-2.7,10.2-3.3,15.4-2c9.1,2.4,15.1,10.3,15.1,20.3c0.1,10.7,0,21.5,0,32.2
		c0,6.7-1.7,9.6-5.7,9.7c-4.1,0.1-5.9-2.9-5.9-9.8c0-10.7,0.1-21.5,0-32.2c-0.1-5.8-3.7-9.5-8.9-9.4c-4.6,0-8.4,3.5-8.6,8.1
		c-0.2,3,0,6-0.1,9c0,4.6-2.1,7.4-5.6,7.5c-3.6,0.1-5.8-2.7-5.8-7.6c-0.1-6.4,0.1-12.8-0.2-19.1c-0.3-5-4.4-8.4-9-8.2
		c-4.7,0.2-8.4,3.9-8.5,8.8c-0.1,3.7,0,7.5,0,11.2c0,5.9-1.9,8.8-5.8,8.8c-3.8,0-5.6-2.8-5.6-8.9c0-7.9,0.1-15.8,0-23.6
		c-0.2-7.4-6-11.8-12.2-9.2c-3.7,1.6-5.6,4.5-5.6,8.5c0,6.4,0,12.7,0,19.1c0,4.5-2.2,7.2-5.9,7.1c-3.5-0.1-5.4-2.5-5.4-7.1
		c0-24.1,0-48.2,0-72.4c0-1.6,0-3.3-0.4-4.8c-0.9-4.6-4.7-7.5-9.1-7.2c-4.4,0.3-7.9,3.6-8.4,8.1c-0.1,1.2-0.1,2.5-0.1,3.7
		c0,37.7,0,75.5-0.1,113.2c0,2.2-1.1,5.1-2.7,6.4c-3.5,2.9-8.4-0.1-8.4-5c-0.1-12.1,0-24.2,0-36.4c0-1.4,0-2.7,0-4
		c-10.1-2.7-21.3,5.3-21.4,16.4c-0.3,17.8,0.2,35.7,1.3,53.5c0.6,10.3,5.8,19.5,10.3,28.7c1.1,2.2,2.1,4.5,3.2,6.8
		c2.3,4.9,1.9,6.6-2.4,9.9C237.2,384.8,236,384.8,234.7,384.8z M288.4,190.3c5,0,10.1,0.1,15.2,0c3.7-0.1,5.3-2,5.3-5.8
		c0.1-5.1,0-10.2,0-15.4c0-5-1.4-6.5-6.4-6.5c-12.2,0-24.5,0-36.7,0c-10.7,0-21.5,0-32.2,0c-4.3,0-5.8,1.4-5.8,5.5
		c-0.1,5.7,0,11.5,0,17.2c0,3,1.7,4.8,4.6,4.9c5,0.2,9.9,0.1,14.8,0.1c3.3-11.7,9.8-17.8,19.3-18.3
		C276.5,171.3,282.6,176.3,288.4,190.3z"/>
	<path d="M333.7,0.8c0.7,0.2,1.4,0.6,2.1,0.7c17.9,3.7,30.7,19,30.8,37.4c0.2,19.9,0,39.7,0,59.6c0,44.5,0,89,0,133.5
		c0,1.2,0.1,2.5-0.1,3.7c-0.4,3.2-2.7,5.3-5.8,5.2c-3.2-0.1-5.2-2-5.5-5.5c-0.1-1.4-0.1-2.7-0.1-4.1c0-63.2,0-126.5,0-189.7
		c0-14.4-7-24.7-19.4-28.3c-3-0.9-6.1-1.3-9.2-1.3c-92.2-0.1-184.5,0-276.7-0.1c-16.2,0-28.8,12.1-28.7,28.8c0.3,52,0.1,104,0.1,156
		c0,1.6,0,3.3-0.3,4.8c-0.5,2.9-2.4,4.6-5.4,4.7c-3.1,0-4.9-1.7-5.6-4.5c-0.3-1.3-0.2-2.7-0.2-4.1c0-52,0-104,0-156
		c0-21.1,11.4-35.4,31.9-40.3c0.3-0.1,0.6-0.4,1-0.6C139.7,0.8,236.7,0.8,333.7,0.8z"/>
	<path d="M32.4,150.6c0-36.6,0-73.2,0-109.8c0-8.8,4.3-14.9,11.9-16.9c1.4-0.4,3-0.5,4.4-0.5c72.5,0,145,0,217.4,0
		c4.6,0,7.2,2.1,7,5.8c-0.2,3-1.8,4.9-4.8,5.3c-1.2,0.2-2.5,0.1-3.7,0.1c-71,0-142,0-212.9,0c-6.9,0-7.8,0.9-7.8,7.7
		c0,72.2,0,144.5,0,216.7c0,7.1,0.7,7.8,7.7,7.8c47.5,0,95,0,142.5,0c1.6,0,3.3,0,4.9,0.2c3,0.4,4.8,2.2,4.9,5.2
		c0.2,3.2-1.6,5.2-4.6,5.9c-1.2,0.3-2.5,0.2-3.7,0.2c-48.4,0-96.7,0-145.1,0c-11.6,0-18.1-6.4-18.1-18.1
		C32.4,223.5,32.4,187.1,32.4,150.6z"/>
	<path d="M69.8,176.2c-0.8-29.2,11.8-49.4,38.9-59.4c0-4.3-0.7-8.5,0.1-12.5c1.6-7.6,8.1-12.5,15.9-12.8c3-0.1,6-0.1,9,0
		c12.6,0.3,20.3,10.9,16.8,22.9c-0.2,0.7-0.4,1.4-0.7,2.3c13,4,23.3,11.5,30.8,22.7c7.4,11.1,9.6,23.7,9,36.9
		c1.3,0.2,2.2,0.3,3.2,0.5c6,1,9.6,4.8,9.9,10.9c0.2,3.6,0.2,7.3,0,10.9c-0.4,6.3-5,11-11.3,10.6c-6-0.4-10.4,1.6-14.6,5.7
		c-5.4,5.3-12.1,7.5-19.8,7.4c-17.9-0.2-35.8-0.3-53.6,0c-8.5,0.2-15.8-2.2-21.7-8.2c-3.6-3.6-7.5-5.1-12.6-4.8
		c-7.8,0.4-12.2-4.3-12.4-12.2c0-1.7,0-3.5,0-5.2C56.7,180.9,59.1,178,69.8,176.2z M81.7,176.4c32.1,0,64,0,96.2,0
		c1.4-16.7-3.2-30.8-16.5-41.2c-14-11-30.3-11.1-46.4-7.8C92.4,132.1,79.4,152,81.7,176.4z M68.3,197.6c0.9,0.1,1.6,0.3,2.1,0.2
		c7.1-1.1,12.9,1.3,17.6,6.6c0.5,0.6,1.2,0.9,1.7,1.5c3.7,3.6,8.1,5,13.2,5c16.9-0.1,33.7-0.3,50.6,0.1c7.2,0.2,13.3-1.5,18.2-6.8
		c4.5-4.9,9.8-7.4,16.6-6.3c0.8,0.1,1.7-0.1,2.6-0.2c0-3.2,0-6.2,0-9.1c-41.1,0-81.8,0-122.7,0C68.3,191.5,68.3,194.3,68.3,197.6z
		 M129.7,114.8c0-0.1,0-0.2,0-0.3c1.7,0,3.5,0.2,5.2-0.1c3.2-0.6,5.1-2.7,5.2-5.9c0.1-3-2.4-5.6-5.7-5.8c-3.1-0.2-6.3-0.2-9.4,0
		c-3.3,0.3-5.3,2.4-5.5,5.6c-0.2,3.1,1.6,5.3,4.6,6C125.9,114.8,127.8,114.7,129.7,114.8z"/>
	<path d="M294.6,71.6c2.8-2.4,5.3-4.7,7.9-6.8c3-2.4,6.1-2.2,8.3,0.4c2.1,2.4,1.7,5.8-1,8.3c-2.7,2.4-6.7,4.3-7.7,7.3
		c-0.9,2.7,1.8,6.4,2.5,9.8c4.7,20.3-9.5,41.7-29.8,45.1c-21.7,3.7-41.9-10.8-44.6-31.9c-2-16.2,5.4-30.9,19.4-38.6
		c13.8-7.6,30.5-5.7,43,4.8C293.1,70.5,293.7,70.9,294.6,71.6z M285.7,79.3c-10.5-9.8-26.1-9.7-36.2,0c-10.3,9.8-11.1,25.7-1.9,36.6
		c8.9,10.4,24.9,12.1,35.9,3.9c11.3-8.4,12.8-24.2,8.3-30.5c-0.7,0.5-1.4,1.1-2,1.6c-6.6,5.7-13.2,11.5-19.9,17.1
		c-3.2,2.7-6.2,2.3-8.8-0.7c-1.8-2.1-3.5-4.2-5.2-6.4c-2.1-2.9-1.8-6,0.6-8c2.3-2,5.7-1.7,8.1,0.8c0.7,0.7,1.3,1.4,2.1,2.2
		C273,90.2,279.3,84.8,285.7,79.3z"/>
	<path d="M121.3,300.7c-24.1,0-48.2,0.1-72.4,0c-18.7-0.1-33.7-12.1-38-30c-0.5-2.3-0.9-4.7-1-7c-0.1-12.7-0.1-25.5-0.1-38.2
		c0-4,2.4-6.4,5.9-6.3c3.3,0.1,5.3,2.2,5.6,6.2c0.1,1,0,2,0,3c0,10.6,0,21.2,0,31.9c0,2.7,0,5.5,0.7,8.2c3,12.9,13.5,20.8,27.8,21
		c6.2,0.1,12.5,0,18.7,0c41.9,0,83.7,0,125.6,0c1.4,0,2.8,0,4.1,0.1c2.8,0.3,4.5,2,4.8,4.9c0.3,2.8-0.9,4.9-3.6,5.8
		c-1.4,0.5-2.9,0.5-4.4,0.5C170.5,300.7,145.9,300.7,121.3,300.7z"/>
	<path d="M344.1,132.5c0,30.6,0,61.2,0,91.9c0,1.5,0,3-0.5,4.4c-0.9,2.7-3,4-5.8,3.7c-2.8-0.3-4.5-2-4.9-4.8c-0.2-1.5-0.1-3-0.1-4.5
		c0-60.1,0-120.2,0-180.4c0-7.4-0.9-8.3-8.1-8.3c-10.6,0-21.2,0-31.9,0c-4.3,0-6.9-2.2-6.9-5.6c0-3.4,2.7-5.6,7-5.6
		c11,0,22,0.4,33-0.1c11.4-0.6,18.6,7.8,18.4,18.6C343.9,72,344.1,102.3,344.1,132.5z"/>
	<path d="M375.6,355.7c0,7.2,0.3,14.5-0.2,21.7c-0.1,2.1-1.8,4.7-3.5,5.9c-1.2,0.8-4.2,0.2-5.7-0.8c-1.3-0.9-2.1-3.2-2.1-4.9
		c-0.2-14.6-0.1-29.2-0.1-43.9c0-4,2.5-6.6,5.8-6.5c3.3,0.1,5.6,2.7,5.7,6.7C375.6,341.2,375.6,348.4,375.6,355.7z"/>
</g>
</svg>
