<svg width="170" height="201" viewBox="0 0 170 201" fill="none" xmlns="http://www.w3.org/2000/svg">
<path fill-rule="evenodd" clip-rule="evenodd" d="M63.1348 0C35.372 0 13 22.372 13 50.1348C13 77.628 35.372 100 63.1348 100C90.628 100 113 77.628 113 50.1348C113 22.372 90.628 0 63.1348 0ZM91.7062 38.5445L56.6658 73.5849C54.5094 75.4717 51.5445 75.4717 49.3881 73.5849L34.5633 58.4906C29.7116 53.9084 36.9892 46.9003 41.5714 51.4825L53.1617 63.0728L84.4286 31.5364C89.2803 26.9542 96.2884 33.9623 91.7062 38.5445Z" fill="#F15C29"/>
<g clip-path="url(#clip0_404_782)">
<path d="M41.7039 191.529C41.7039 196.763 37.4586 201 32.2144 201C26.9702 201 22.7249 196.763 22.7249 191.529C22.7249 186.295 26.9702 182.058 32.2144 182.058C37.4586 182.058 41.7039 186.295 41.7039 191.529Z" fill="#B0CB1F"/>
<path d="M38.2077 191.529C38.2077 194.832 35.5232 197.511 32.2143 197.511C28.9055 197.511 26.2209 194.832 26.2209 191.529C26.2209 188.227 28.9055 185.548 32.2143 185.548C35.5232 185.548 38.2077 188.227 38.2077 191.529Z" fill="#2F2F2F"/>
<path d="M36.5846 190.968C36.5846 193.336 34.6492 195.33 32.2144 195.33C29.7796 195.33 27.8442 193.398 27.8442 190.968C27.8442 188.538 29.7796 186.607 32.2144 186.607C34.6492 186.607 36.5846 188.601 36.5846 190.968Z" fill="#6D6D6D"/>
<path d="M35.0862 188.912C35.8354 190.47 35.1486 192.277 33.5878 193.025C32.0271 193.772 30.2165 193.087 29.4674 191.529L25.0972 182.245C24.348 180.688 25.0348 178.881 26.5955 178.133C28.1563 177.385 29.9668 178.071 30.716 179.628L35.0862 188.912Z" fill="#6D6D6D"/>
<path d="M129.42 191.529C129.42 196.763 125.174 201 119.93 201C114.686 201 110.441 196.763 110.441 191.529C110.441 186.295 114.686 182.058 119.93 182.058C125.174 182.058 129.42 186.295 129.42 191.529Z" fill="#B0CB1F"/>
<path d="M125.924 191.529C125.924 194.832 123.239 197.511 119.93 197.511C116.621 197.511 113.937 194.832 113.937 191.529C113.937 188.227 116.621 185.548 119.93 185.548C123.239 185.548 125.924 188.227 125.924 191.529Z" fill="#2F2F2F"/>
<path d="M124.238 190.968C124.238 193.336 122.303 195.33 119.868 195.33C117.433 195.33 115.498 193.398 115.498 190.968C115.498 188.538 117.433 186.607 119.868 186.607C122.303 186.607 124.238 188.601 124.238 190.968Z" fill="#6D6D6D"/>
<path d="M122.74 188.912C123.489 190.47 122.802 192.277 121.241 193.025C119.68 193.772 117.87 193.087 117.121 191.529L112.751 182.245C112.001 180.688 112.688 178.881 114.249 178.133C115.81 177.385 117.62 178.071 118.369 179.628L122.74 188.912Z" fill="#6D6D6D"/>
<path d="M120.118 151.092H17.8553C16.6067 151.092 15.5453 150.282 15.2332 149.098L0.124847 94.2046C-0.24974 92.7715 0.561865 91.2138 2.06021 90.84C3.49613 90.4661 5.05691 91.2761 5.43149 92.7715L19.978 145.671H117.808L133.79 47.4738C133.977 46.29 134.851 45.4177 136.037 45.2308L164.131 40.4331C165.63 40.1838 167.066 41.1808 167.315 42.6761C167.565 44.1715 166.566 45.6046 165.068 45.8538L138.909 50.34L122.864 148.848C122.615 150.157 121.429 151.092 120.118 151.092Z" fill="#6D6D6D"/>
<path d="M2.74692 96.1984C1.37344 96.1984 0.187244 95.1392 -4.97336e-05 93.7684C-0.124912 92.2107 0.936417 90.9023 2.4972 90.7153L130.918 77.6307C132.416 77.4438 133.79 78.5653 133.915 80.0607C134.04 81.5561 132.978 82.9269 131.48 83.0515L2.99664 96.1984C2.93421 96.1984 2.80935 96.1984 2.74692 96.1984Z" fill="#6D6D6D"/>
<path d="M131.168 180.563H20.6022C19.1038 180.563 17.8552 179.317 17.8552 177.821C17.8552 176.326 19.1038 175.08 20.6022 175.08H127.235L117.558 149.285C116.996 147.852 117.745 146.294 119.181 145.733C120.554 145.172 122.178 145.92 122.74 147.353L133.852 176.825C134.164 177.697 134.04 178.631 133.54 179.317C132.916 180.127 132.104 180.563 131.168 180.563Z" fill="#6D6D6D"/>
<path d="M8.30325 114.579C6.86734 114.641 5.61871 113.52 5.49385 112.087C5.36899 110.591 6.49275 109.283 7.9911 109.158L126.423 99.9369C127.921 99.75 129.232 100.934 129.357 102.429C129.482 103.925 128.358 105.233 126.86 105.358L8.42812 114.579C8.36568 114.579 8.30325 114.579 8.30325 114.579Z" fill="#6D6D6D"/>
<path d="M13.6724 135.888C12.2365 135.888 10.9879 134.705 10.9255 133.272C10.863 131.776 12.0492 130.468 13.5476 130.405L123.177 125.982C124.675 125.919 125.986 127.103 126.048 128.598C126.111 130.094 124.925 131.402 123.426 131.465L13.7349 135.888H13.6724Z" fill="#6D6D6D"/>
<path d="M32.2769 151.092C31.0283 151.092 29.9045 150.219 29.5924 148.911L18.0426 92.5223C17.7305 91.0269 18.6669 89.5938 20.1653 89.3446C21.6012 89.0331 23.0995 89.9677 23.3493 91.4631L34.899 147.852C35.2112 149.347 34.2747 150.78 32.7764 151.029C32.6515 151.092 32.4642 151.092 32.2769 151.092Z" fill="#6D6D6D"/>
<path d="M50.9438 151.092C49.6327 151.092 48.4465 150.095 48.2593 148.786L39.0819 89.8431C38.8322 88.3477 39.8935 86.9769 41.3918 86.7277C42.8902 86.4784 44.2637 87.5377 44.5134 89.0331L53.6283 147.976C53.8781 149.472 52.8167 150.842 51.3184 151.092C51.1935 151.092 51.0687 151.092 50.9438 151.092Z" fill="#6D6D6D"/>
<path d="M68.2996 151.091C66.8637 151.091 65.6775 149.97 65.5526 148.537L61.6819 87.413C61.557 85.9176 62.7432 84.6092 64.2416 84.4846C65.7399 84.2976 67.051 85.5438 67.1758 87.0392L71.0465 148.163C71.1714 149.658 69.9852 150.967 68.4869 151.091C68.4244 151.091 68.362 151.091 68.2996 151.091Z" fill="#6D6D6D"/>
<path d="M86.3422 151.092C84.8438 151.092 83.5952 149.845 83.5952 148.35V85.1077C83.5952 83.6123 84.8438 82.3661 86.3422 82.3661C87.8405 82.3661 89.0891 83.6123 89.0891 85.1077V148.412C89.0891 149.908 87.8405 151.092 86.3422 151.092Z" fill="#6D6D6D"/>
<path d="M102.637 151.092C102.512 151.092 102.449 151.092 102.325 151.092C100.826 150.905 99.7025 149.596 99.8898 148.101L107.194 82.1792C107.382 80.6838 108.755 79.6246 110.253 79.7492C111.752 79.9361 112.875 81.2446 112.688 82.8023L105.384 148.662C105.196 150.095 104.01 151.092 102.637 151.092Z" fill="#6D6D6D"/>
<path d="M169.938 42.6138C170.312 44.9815 168.689 47.1623 166.317 47.4738L138.847 51.5861C136.537 51.96 134.352 50.34 133.977 47.9723C133.603 45.6046 135.226 43.4238 137.598 43.1123L165.068 39C167.378 38.6884 169.563 40.3084 169.938 42.6138Z" fill="#F15C29"/>
</g>
<defs>
<clipPath id="clip0_404_782">
<rect width="170" height="162" fill="white" transform="translate(0 39)"/>
</clipPath>
</defs>
</svg>
