<svg width="170" height="162" viewBox="0 0 170 162" fill="none" xmlns="http://www.w3.org/2000/svg">
<g clip-path="url(#clip0_404_798)">
<path d="M41.7039 152.529C41.7039 157.763 37.4586 162 32.2144 162C26.9702 162 22.7249 157.763 22.7249 152.529C22.7249 147.295 26.9702 143.058 32.2144 143.058C37.4586 143.058 41.7039 147.295 41.7039 152.529Z" fill="#109441"/>
<path d="M38.2077 152.529C38.2077 155.832 35.5232 158.511 32.2143 158.511C28.9055 158.511 26.2209 155.832 26.2209 152.529C26.2209 149.227 28.9055 146.548 32.2143 146.548C35.5232 146.548 38.2077 149.227 38.2077 152.529Z" fill="#2F2F2F"/>
<path d="M36.5846 151.968C36.5846 154.336 34.6492 156.33 32.2144 156.33C29.7796 156.33 27.8442 154.398 27.8442 151.968C27.8442 149.538 29.7796 147.607 32.2144 147.607C34.6492 147.607 36.5846 149.601 36.5846 151.968Z" fill="#6D6D6D"/>
<path d="M35.0862 149.912C35.8354 151.47 35.1486 153.277 33.5878 154.025C32.0271 154.772 30.2165 154.087 29.4674 152.529L25.0972 143.245C24.348 141.688 25.0348 139.881 26.5955 139.133C28.1563 138.385 29.9668 139.071 30.716 140.628L35.0862 149.912Z" fill="#6D6D6D"/>
<path d="M129.42 152.529C129.42 157.763 125.174 162 119.93 162C114.686 162 110.441 157.763 110.441 152.529C110.441 147.295 114.686 143.058 119.93 143.058C125.174 143.058 129.42 147.295 129.42 152.529Z" fill="#109441"/>
<path d="M125.924 152.529C125.924 155.832 123.239 158.511 119.93 158.511C116.621 158.511 113.937 155.832 113.937 152.529C113.937 149.227 116.621 146.548 119.93 146.548C123.239 146.548 125.924 149.227 125.924 152.529Z" fill="#2F2F2F"/>
<path d="M124.238 151.968C124.238 154.336 122.303 156.33 119.868 156.33C117.433 156.33 115.498 154.398 115.498 151.968C115.498 149.538 117.433 147.607 119.868 147.607C122.303 147.607 124.238 149.601 124.238 151.968Z" fill="#6D6D6D"/>
<path d="M122.74 149.912C123.489 151.47 122.802 153.277 121.241 154.025C119.681 154.772 117.87 154.087 117.121 152.529L112.751 143.245C112.002 141.688 112.688 139.881 114.249 139.133C115.81 138.385 117.62 139.071 118.37 140.628L122.74 149.912Z" fill="#6D6D6D"/>
<path d="M120.117 112.092H17.8552C16.6065 112.092 15.5452 111.282 15.2331 110.098L0.124725 55.2046C-0.249862 53.7715 0.561743 52.2138 2.06009 51.84C3.49601 51.4661 5.05679 52.2761 5.43137 53.7715L19.9778 106.671H117.807L133.79 8.47384C133.977 7.28999 134.851 6.41768 136.037 6.23076L164.131 1.43307C165.63 1.18383 167.066 2.18076 167.315 3.67614C167.565 5.17153 166.566 6.6046 165.068 6.85384L138.909 11.34L122.864 109.848C122.615 111.157 121.428 112.092 120.117 112.092Z" fill="#6D6D6D"/>
<path d="M2.74692 57.1984C1.37344 57.1984 0.187244 56.1392 -4.97336e-05 54.7684C-0.124912 53.2107 0.936417 51.9023 2.4972 51.7153L130.918 38.6307C132.416 38.4438 133.79 39.5653 133.915 41.0607C134.04 42.5561 132.978 43.9269 131.48 44.0515L2.99664 57.1984C2.93421 57.1984 2.80935 57.1984 2.74692 57.1984Z" fill="#6D6D6D"/>
<path d="M131.168 141.563H20.6022C19.1038 141.563 17.8552 140.317 17.8552 138.821C17.8552 137.326 19.1038 136.08 20.6022 136.08H127.235L117.558 110.285C116.996 108.852 117.745 107.294 119.181 106.733C120.554 106.172 122.178 106.92 122.74 108.353L133.852 137.825C134.164 138.697 134.04 139.631 133.54 140.317C132.916 141.127 132.104 141.563 131.168 141.563Z" fill="#6D6D6D"/>
<path d="M8.30325 75.5792C6.86734 75.6415 5.61871 74.52 5.49385 73.0869C5.36899 71.5915 6.49275 70.283 7.9911 70.1584L126.423 60.9369C127.921 60.75 129.232 61.9338 129.357 63.4292C129.482 64.9246 128.358 66.233 126.86 66.3577L8.42812 75.5792C8.36568 75.5792 8.30325 75.5792 8.30325 75.5792Z" fill="#6D6D6D"/>
<path d="M13.6724 96.8885C12.2365 96.8885 10.9879 95.7046 10.9255 94.2715C10.863 92.7762 12.0492 91.4677 13.5476 91.4054L123.177 86.9815C124.675 86.9192 125.986 88.1031 126.048 89.5985C126.111 91.0938 124.925 92.4023 123.426 92.4646L13.7349 96.8885H13.6724Z" fill="#6D6D6D"/>
<path d="M32.2769 112.092C31.0283 112.092 29.9045 111.219 29.5924 109.911L18.0426 53.5223C17.7305 52.0269 18.6669 50.5938 20.1653 50.3446C21.6012 50.0331 23.0995 50.9677 23.3493 52.4631L34.899 108.852C35.2112 110.347 34.2747 111.78 32.7764 112.029C32.6515 112.092 32.4642 112.092 32.2769 112.092Z" fill="#6D6D6D"/>
<path d="M50.9438 112.092C49.6327 112.092 48.4465 111.095 48.2593 109.786L39.0819 50.8431C38.8322 49.3477 39.8935 47.9769 41.3918 47.7277C42.8902 47.4784 44.2637 48.5377 44.5134 50.0331L53.6283 108.976C53.8781 110.472 52.8167 111.842 51.3184 112.092C51.1935 112.092 51.0687 112.092 50.9438 112.092Z" fill="#6D6D6D"/>
<path d="M68.2996 112.091C66.8637 112.091 65.6775 110.97 65.5526 109.537L61.6819 48.413C61.557 46.9176 62.7432 45.6092 64.2416 45.4846C65.7399 45.2976 67.051 46.5438 67.1758 48.0392L71.0465 109.163C71.1714 110.658 69.9852 111.967 68.4869 112.091C68.4244 112.091 68.362 112.091 68.2996 112.091Z" fill="#6D6D6D"/>
<path d="M86.3422 112.092C84.8438 112.092 83.5952 110.845 83.5952 109.35V46.1077C83.5952 44.6123 84.8438 43.3661 86.3422 43.3661C87.8405 43.3661 89.0891 44.6123 89.0891 46.1077V109.412C89.0891 110.908 87.8405 112.092 86.3422 112.092Z" fill="#6D6D6D"/>
<path d="M102.637 112.092C102.512 112.092 102.449 112.092 102.325 112.092C100.826 111.905 99.7025 110.596 99.8898 109.101L107.194 43.1792C107.382 41.6838 108.755 40.6246 110.253 40.7492C111.752 40.9361 112.875 42.2446 112.688 43.8023L105.384 109.662C105.196 111.095 104.01 112.092 102.637 112.092Z" fill="#6D6D6D"/>
<path d="M169.937 3.61382C170.312 5.98151 168.689 8.16228 166.316 8.47382L138.847 12.5861C136.537 12.96 134.352 11.34 133.977 8.97228C133.603 6.60459 135.226 4.42382 137.598 4.11228L165.068 -2.45012e-05C167.378 -0.311563 169.563 1.30844 169.937 3.61382Z" fill="#4E2C28"/>
</g>
<defs>
<clipPath id="clip0_404_798">
<rect width="170" height="162" fill="white"/>
</clipPath>
</defs>
</svg>
