<svg xmlns="http://www.w3.org/2000/svg" width="13" height="16" viewBox="0 0 13 16" fill="none">
<path d="M11.4286 6.28571C11.4286 4.92174 10.8867 3.61364 9.92226 2.64917C8.95779 1.68469 7.64968 1.14286 6.28571 1.14286C4.92174 1.14286 3.61364 1.68469 2.64916 2.64917C1.68469 3.61364 1.14286 4.92174 1.14286 6.28571C1.14286 8.39543 2.83086 11.1451 6.28571 14.4389C9.74057 11.1451 11.4286 8.39543 11.4286 6.28571ZM6.28571 16C2.09486 12.1909 0 8.952 0 6.28571C0 4.61864 0.662243 3.01984 1.84104 1.84104C3.01984 0.662243 4.61864 0 6.28571 0C7.95279 0 9.55159 0.662243 10.7304 1.84104C11.9092 3.01984 12.5714 4.61864 12.5714 6.28571C12.5714 8.952 10.4766 12.1909 6.28571 16Z" fill="#34394B"/>
<path d="M6.2857 7.99999C6.74036 7.99999 7.17639 7.81938 7.49788 7.49788C7.81938 7.17639 7.99999 6.74036 7.99999 6.2857C7.99999 5.83104 7.81938 5.39501 7.49788 5.07352C7.17639 4.75203 6.74036 4.57142 6.2857 4.57142C5.83104 4.57142 5.39501 4.75203 5.07352 5.07352C4.75203 5.39501 4.57142 5.83104 4.57142 6.2857C4.57142 6.74036 4.75203 7.17639 5.07352 7.49788C5.39501 7.81938 5.83104 7.99999 6.2857 7.99999ZM6.2857 9.14284C5.52794 9.14284 4.80121 8.84183 4.2654 8.30601C3.72958 7.77019 3.42856 7.04346 3.42856 6.2857C3.42856 5.52794 3.72958 4.80121 4.2654 4.2654C4.80121 3.72958 5.52794 3.42856 6.2857 3.42856C7.04346 3.42856 7.77019 3.72958 8.30601 4.2654C8.84183 4.80121 9.14284 5.52794 9.14284 6.2857C9.14284 7.04346 8.84183 7.77019 8.30601 8.30601C7.77019 8.84183 7.04346 9.14284 6.2857 9.14284Z" fill="#34394B"/>
</svg>