<svg width="100" height="25" viewBox="0 0 100 25" fill="none" xmlns="http://www.w3.org/2000/svg">
<path d="M3.79192 24.7332C2.38186 24.7332 1.41006 24.4855 0.838415 24.0092C0.285823 23.5328 0 22.5991 0 21.2081V4.21113C0 2.76296 0.285823 1.75305 0.838415 1.16235C1.39101 0.590706 2.40091 0.285828 3.84909 0.285828H8.4032C10.6136 0.285828 12.4809 0.743145 14.0244 1.65778C15.8918 2.74391 16.8445 4.32546 16.8445 6.38339C16.8445 9.01296 15.8918 10.8041 14.0053 11.7569C13.9863 11.7759 13.9672 11.795 13.9672 11.814C13.9672 11.8521 13.9863 11.8712 14.0244 11.8902C15.4345 12.3285 16.4253 12.9764 17.0541 13.8338C17.6829 14.6913 17.9878 15.8727 17.9878 17.359C17.9878 19.8361 17.1303 21.7226 15.4154 23.0183C13.891 24.1616 11.8521 24.7332 9.29878 24.7332H3.79192ZM5.58308 5.12577V9.7561C5.58308 9.79421 5.62119 9.83232 5.6593 9.83232H8.00305C9.08918 9.83232 9.87043 9.69894 10.3087 9.43217C10.9375 9.07013 11.2424 8.40321 11.2424 7.43141C11.2424 5.84985 10.1563 5.04955 8.00305 5.04955H5.64024C5.60213 5.04955 5.58308 5.08766 5.58308 5.12577ZM5.58308 14.2721V19.8742C5.58308 19.9124 5.62119 19.9505 5.6593 19.9505H8.36509C9.54649 19.9505 10.423 19.798 11.0137 19.4741C11.7759 19.0549 12.157 18.2927 12.157 17.2066C12.157 15.9299 11.795 15.0915 11.0518 14.6723C10.5183 14.3674 9.5846 14.1959 8.26982 14.1959H5.64024C5.60213 14.1959 5.58308 14.2149 5.58308 14.2721Z" fill="#F15C29"/>
<path d="M21.8178 13.7957V3.94436C21.8178 1.31479 22.7515 0 24.5998 0C26.4481 0 27.3818 1.31479 27.3818 3.94436V13.1669C27.3818 17.4924 29.0206 19.6456 32.298 19.6456C35.5754 19.6456 37.2141 17.4924 37.2141 13.1669V3.94436C37.2141 1.31479 38.1288 0 39.9771 0C41.8254 0 42.7591 1.31479 42.7591 3.94436V13.7957C42.7591 17.2256 41.8826 19.9314 40.1105 21.875C38.2812 23.952 35.6707 24.9809 32.2789 24.9809C28.8872 24.9809 26.2766 23.952 24.4474 21.875C22.6943 19.9314 21.8178 17.2447 21.8178 13.7957Z" fill="#F15C29"/>
<path d="M57.2218 0.304883C59.8514 0.304883 61.1661 1.18141 61.1661 2.9154C61.1661 4.63034 59.8514 5.48781 57.2218 5.48781H52.7439C52.7058 5.48781 52.6677 5.52592 52.6677 5.56403V9.77516C52.6677 9.81327 52.7058 9.85138 52.7439 9.85138H56.593C59.2225 9.85138 60.5373 10.7088 60.5373 12.4047C60.5373 14.1197 59.2225 14.9581 56.593 14.9581H52.7439C52.7058 14.9581 52.6677 14.9962 52.6677 15.0343V21.0556C52.6677 23.6852 51.734 25 49.8857 25C48.0373 25 47.1036 23.6852 47.1036 21.0556V4.21113C47.1036 2.76296 47.3895 1.75305 47.9421 1.16235C48.4946 0.590706 49.5045 0.285828 50.9527 0.285828H57.2218V0.304883Z" fill="#F15C29"/>
<path d="M74.5046 0.304883C77.1341 0.304883 78.4489 1.18141 78.4489 2.9154C78.4489 4.63034 77.1341 5.48781 74.5046 5.48781H70.0267C69.9885 5.48781 69.9504 5.52592 69.9504 5.56403V9.77516C69.9504 9.81327 69.9885 9.85138 70.0267 9.85138H73.8757C76.5053 9.85138 77.8201 10.7088 77.8201 12.4047C77.8201 14.1197 76.5053 14.9581 73.8757 14.9581H70.0267C69.9885 14.9581 69.9504 14.9962 69.9504 15.0343V19.5313C69.9504 19.5694 69.9885 19.6075 70.0267 19.6075H74.676C77.3056 19.6075 78.6204 20.4649 78.6204 22.1608C78.6204 23.8567 77.3056 24.7142 74.676 24.7142H68.1783C66.7683 24.7142 65.7965 24.4665 65.2248 23.9901C64.6722 23.5137 64.3864 22.58 64.3864 21.189V4.21113C64.3864 2.76296 64.6722 1.75305 65.2248 1.16235C65.7774 0.590706 66.7873 0.285828 68.2355 0.285828H74.5046V0.304883Z" fill="#F15C29"/>
<path d="M87.5572 5.56406C87.5572 5.46879 87.4809 5.41163 87.4047 5.41163C85.4802 5.41163 84.2988 5.35446 83.8224 5.24013C82.298 4.93525 81.5549 4.11589 81.5549 2.83922C81.5549 1.10522 82.8887 0.228699 85.5373 0.228699H95.2172C97.8468 0.228699 99.1616 1.10522 99.1616 2.83922C99.1616 4.13495 98.3994 4.93525 96.894 5.24013C96.4177 5.35446 95.2172 5.41163 93.3117 5.41163C93.2165 5.41163 93.1593 5.48784 93.1593 5.56406V20.9795C93.1593 23.609 92.2256 24.9238 90.3773 24.9238C88.529 24.9238 87.5953 23.609 87.5953 20.9795V5.56406H87.5572Z" fill="#F15C29"/>
</svg>
