<svg width="30" height="35" viewBox="0 0 30 35" fill="none" xmlns="http://www.w3.org/2000/svg">
<path fill-rule="evenodd" clip-rule="evenodd" d="M2 0C0.895431 0 0 0.89543 0 2V28C0 29.1046 0.89543 30 2 30H11.3916L15 35L18.6084 30H28C29.1046 30 30 29.1046 30 28V2C30 0.895431 29.1046 0 28 0H2Z" fill="#F15C29"/>
<path d="M15.2607 16.6617C15.0172 16.9452 14.8014 17.1941 14.5787 17.4568C14.4604 17.3462 14.3838 17.284 14.3073 17.2079C12.5813 15.4862 10.8832 13.7369 9.12241 12.0497C7.95321 10.9365 7.68875 9.6297 8.02977 8.13618C8.08544 7.88035 8.17592 7.62451 8.26639 7.37559C8.4195 6.95381 8.81619 6.87775 9.13633 7.19582C13.5904 11.6349 18.0376 16.0739 22.4847 20.5199C23.0067 21.0385 23.125 21.6055 22.8606 22.1863C22.6239 22.7049 22.095 23.0368 21.5243 23.0022C21.0511 22.9746 20.7031 22.7395 20.3969 22.3937C18.8379 20.6444 17.272 18.895 15.7061 17.1526C15.5809 17.0074 15.4486 16.8691 15.2607 16.6617Z" fill="white"/>
<path d="M22.3176 9.68502C22.5542 9.92011 22.7421 10.1206 22.9579 10.335C22.9022 10.4041 22.8535 10.4802 22.7908 10.5424C21.7678 11.5657 20.7378 12.5753 19.7286 13.6055C19.1997 14.1448 18.5316 14.3246 17.8148 14.3938C17.7313 14.4007 17.6199 14.3246 17.5573 14.2624C16.9448 13.6608 16.3393 13.0593 15.7478 12.4508C15.6712 12.3678 15.6295 12.2157 15.6364 12.0912C15.6782 11.2408 16.0749 10.577 16.6943 9.98926C17.6199 9.11804 18.5038 8.20533 19.4015 7.30646C19.4851 7.22349 19.5686 7.15434 19.666 7.06445C19.8748 7.28572 20.0697 7.49315 20.3063 7.74207C19.4711 8.53031 18.6151 9.34622 17.7382 10.1829C18.0236 10.4594 18.2323 10.653 18.462 10.8743C19.2832 10.0377 20.1045 9.20101 20.9605 8.32979C21.211 8.59946 21.4129 8.8138 21.6286 9.05581C20.7935 9.8648 19.9444 10.6738 19.0744 11.5173C19.3667 11.7663 19.5895 11.9599 19.833 12.1742C20.6264 11.3791 21.4546 10.5493 22.3176 9.68502Z" fill="white"/>
<path d="M11.8506 16.1777C12.5326 16.8415 13.1798 17.4776 13.9036 18.1829C13.5417 18.5148 13.1659 18.8329 12.8179 19.1786C11.7183 20.2642 10.6257 21.3636 9.53302 22.456C9.15025 22.8363 8.71876 23.0714 8.16199 22.9608C7.0763 22.7464 6.63785 21.5364 7.34077 20.679C7.41036 20.5891 7.49388 20.5062 7.57739 20.4232C8.92754 19.0749 10.2777 17.7335 11.6209 16.3852C11.7044 16.3091 11.7879 16.233 11.8506 16.1777Z" fill="white"/>
</svg>
