<svg width="25" height="25" viewBox="0 0 25 25" fill="none" xmlns="http://www.w3.org/2000/svg">
<g clip-path="url(#clip0_1138_833)">
<path d="M8.59885 9.89771C7.92893 9.89771 7.3887 10.1129 6.97854 10.5438C6.56877 10.9754 6.36292 11.6258 6.36292 12.4946C6.36292 13.3497 6.57424 13.9985 6.99495 14.4399C7.41643 14.8817 7.95081 15.102 8.59885 15.102C9.24729 15.102 9.77932 14.8829 10.1957 14.445C10.611 14.0063 10.8188 13.3493 10.8188 12.4735C10.8188 11.6075 10.6164 10.9614 10.2117 10.5356C9.80706 10.1098 9.26917 9.89771 8.59885 9.89771Z" fill="#B0CB1F"/>
<path d="M20.3125 0.78125H4.6875C2.53008 0.78125 0.78125 2.53008 0.78125 4.6875V20.3125C0.78125 22.4699 2.53008 24.2188 4.6875 24.2188H20.3125C22.4699 24.2188 24.2188 22.4699 24.2188 20.3125V4.6875C24.2188 2.53008 22.4699 0.78125 20.3125 0.78125ZM11.4391 15.3727C10.7328 16.0621 9.78828 16.4062 8.6043 16.4062C7.40664 16.4062 6.45469 16.0637 5.74766 15.3777C5.04102 14.6926 4.68711 13.7488 4.68711 12.5465C4.68711 11.7766 4.81016 11.1305 5.05508 10.6086C5.24056 10.2208 5.4948 9.86979 5.80547 9.57266C6.12227 9.2668 6.46914 9.04023 6.84609 8.89297C7.34883 8.69375 7.92695 8.59375 8.58242 8.59375C9.76914 8.59375 10.7191 8.93867 11.4316 9.62891C12.1438 10.3203 12.4996 11.2801 12.4996 12.5098C12.4996 13.7297 12.1465 14.6844 11.4391 15.3727ZM18.275 16.4062L16.132 12.7395L14.8551 14.0449V16.4062H13.2809V8.59375H14.8551V12.0629L18.0355 8.59375H20.1527L17.2164 11.6363L20.3121 16.4062H18.275Z" fill="#B0CB1F"/>
</g>
<defs>
<clipPath id="clip0_1138_833">
<rect width="25" height="25" fill="white"/>
</clipPath>
</defs>
</svg>
