<svg width="44" height="44" viewBox="0 0 44 44" fill="none" xmlns="http://www.w3.org/2000/svg">
<circle cx="22" cy="22" r="22" fill="#F15C29"/>
<path d="M26.6316 24.7911C27.3016 24.7911 27.9442 25.0655 28.418 25.5539C28.8917 26.0423 29.1579 26.7048 29.1579 27.3955C29.1579 28.0863 28.8917 28.7487 28.418 29.2372C27.9442 29.7256 27.3016 30 26.6316 30C26.1086 30.0016 25.5982 29.8352 25.1711 29.5241C24.7441 29.2129 24.4216 28.7724 24.2484 28.2637H23.2632V26.5274H24.2484C24.5937 25.5117 25.5284 24.7911 26.6316 24.7911ZM26.6316 26.5274C26.4082 26.5274 26.194 26.6189 26.0361 26.7817C25.8782 26.9445 25.7895 27.1653 25.7895 27.3955C25.7895 27.6258 25.8782 27.8466 26.0361 28.0094C26.194 28.1722 26.4082 28.2637 26.6316 28.2637C26.8549 28.2637 27.0691 28.1722 27.227 28.0094C27.385 27.8466 27.4737 27.6258 27.4737 27.3955C27.4737 27.1653 27.385 26.9445 27.227 26.7817C27.0691 26.6189 26.8549 26.5274 26.6316 26.5274ZM26.6316 18.7141C26.951 18.7141 27.2573 18.5833 27.4831 18.3504C27.7089 18.1176 27.8358 17.8019 27.8358 17.4726C27.8358 17.1433 27.7089 16.8276 27.4831 16.5948C27.2573 16.3619 26.951 16.2311 26.6316 16.2311C26.3122 16.2311 26.0059 16.3619 25.7801 16.5948C25.5542 16.8276 25.4274 17.1433 25.4274 17.4726C25.4274 17.8019 25.5542 18.1176 25.7801 18.3504C26.0059 18.5833 26.3122 18.7141 26.6316 18.7141ZM26.6316 14C27.5249 14 28.3817 14.3659 29.0134 15.0171C29.6451 15.6683 30 16.5516 30 17.4726C30 20.0684 26.6316 23.9229 26.6316 23.9229C26.6316 23.9229 23.2632 20.0684 23.2632 17.4726C23.2632 16.5516 23.618 15.6683 24.2497 15.0171C24.8814 14.3659 25.7382 14 26.6316 14ZM18.9095 26.5274H19.8947V28.2637H18.9095C18.7363 28.7724 18.4138 29.2129 17.9868 29.5241C17.5597 29.8352 17.0493 30.0016 16.5263 30C15.8563 30 15.2137 29.7256 14.74 29.2372C14.2662 28.7487 14 28.0863 14 27.3955C14 26.2583 14.699 25.2946 15.6842 24.9387V23.9229H17.3684V24.9387C18.0842 25.1991 18.6568 25.7895 18.9095 26.5274ZM16.5263 26.5274C16.303 26.5274 16.0888 26.6189 15.9309 26.7817C15.7729 26.9445 15.6842 27.1653 15.6842 27.3955C15.6842 27.6258 15.7729 27.8466 15.9309 28.0094C16.0888 28.1722 16.303 28.2637 16.5263 28.2637C16.7497 28.2637 16.9639 28.1722 17.1218 28.0094C17.2797 27.8466 17.3684 27.6258 17.3684 27.3955C17.3684 27.1653 17.2797 26.9445 17.1218 26.7817C16.9639 26.6189 16.7497 26.5274 16.5263 26.5274ZM16.5263 14.3733C17.1963 14.3733 17.8389 14.6477 18.3127 15.1361C18.7865 15.6246 19.0526 16.287 19.0526 16.9778C19.0526 18.115 18.3537 19.0787 17.3684 19.4346V20.4503H15.6842V19.4346C15.1908 19.2561 14.7635 18.9236 14.4617 18.4834C14.1598 18.0431 13.9985 17.5169 14 16.9778C14 16.287 14.2662 15.6246 14.74 15.1361C15.2137 14.6477 15.8563 14.3733 16.5263 14.3733ZM16.5263 16.1096C16.303 16.1096 16.0888 16.2011 15.9309 16.3639C15.7729 16.5267 15.6842 16.7475 15.6842 16.9778C15.6842 17.208 15.7729 17.4288 15.9309 17.5916C16.0888 17.7544 16.303 17.8459 16.5263 17.8459C16.7497 17.8459 16.9639 17.7544 17.1218 17.5916C17.2797 17.4288 17.3684 17.208 17.3684 16.9778C17.3684 16.7475 17.2797 16.5267 17.1218 16.3639C16.9639 16.2011 16.7497 16.1096 16.5263 16.1096ZM20.7368 28.2637V26.5274H22.4211V28.2637H20.7368ZM17.3684 23.0548H15.6842V21.3185H17.3684V23.0548Z" fill="white"/>
</svg>
