<svg width="16" height="16" viewBox="0 0 16 16" fill="none" xmlns="http://www.w3.org/2000/svg">
<g clip-path="url(#clip0_38_1224)">
<path d="M0.204604 3.81656C0.204604 2.2081 1.43212 0.895926 2.84305 0.81127C3.24517 0.790106 3.60496 0.881817 3.90125 1.15695C4.8748 2.05289 5.64376 3.08993 6.18697 4.28922C6.46915 4.91004 6.28573 5.49557 5.70725 5.94707C4.76192 6.70192 4.69138 6.96295 5.2487 8.06348C5.99649 9.52379 7.17462 10.5114 8.67021 11.1464C9.17109 11.358 9.44623 11.2592 9.7919 10.8289C9.82718 10.7866 9.86245 10.7372 9.89773 10.6878C10.5609 9.8342 11.358 9.60845 12.2751 10.1799C13.1781 10.7372 14.0177 11.4074 14.8501 12.0705C15.351 12.4726 15.4568 13.0582 15.224 13.6578C14.7231 14.9277 13.7848 15.739 12.4445 15.9788C12.0635 16.0494 11.612 15.9083 11.2381 15.7531C6.43388 13.679 2.85716 10.3351 0.733704 5.50968C0.465627 4.90298 0.197549 4.29628 0.204604 3.81656Z" fill="#A7A7A7"/>
<path d="M15.7884 6.96295C15.7884 7.16048 15.8025 7.35801 15.7813 7.55554C15.7461 7.91533 15.5274 8.11992 15.1958 8.12697C14.8501 8.14108 14.5962 7.94355 14.5397 7.58376C14.4762 7.18164 14.4621 6.77247 14.3916 6.37741C14.1306 4.95237 13.6297 3.64725 12.4727 2.69487C11.478 1.87653 10.2999 1.53085 9.05824 1.32626C8.91009 1.3051 8.76194 1.28394 8.60674 1.26277C8.14819 1.20634 7.95771 1.01586 7.97888 0.634906C8.00004 0.23279 8.24695 0.0070405 8.6914 -1.41693e-05C9.57323 -0.00706884 10.4268 0.148134 11.2381 0.472649C13.9189 1.5379 15.739 4.14108 15.7884 6.96295Z" fill="#A7A7A7"/>
<path d="M13.6932 6.77248C13.6932 6.89946 13.7073 7.02644 13.6932 7.15343C13.6509 7.52027 13.4322 7.7178 13.0724 7.72486C12.7267 7.73191 12.5221 7.55555 12.4586 7.1887C12.3881 6.80069 12.3316 6.41269 12.254 6.02468C11.986 4.79011 11.2382 3.99293 10.0318 3.63315C9.62264 3.51322 9.19936 3.43561 8.78314 3.33685C8.37397 3.23808 8.1976 2.99117 8.25404 2.61022C8.31047 2.22926 8.55033 2.03879 8.9595 2.04584C11.09 2.09523 13.0724 3.66136 13.5874 5.73544C13.672 6.06701 13.6932 6.41974 13.7426 6.76542C13.7214 6.76542 13.7073 6.77248 13.6932 6.77248Z" fill="#A7A7A7"/>
<path d="M9.30512 4.15503C10.5185 4.16208 11.7954 5.57302 11.6825 6.78642C11.6402 7.2097 11.4286 7.45661 11.0829 7.47778C10.7443 7.49894 10.4762 7.28025 10.4198 6.85697C10.3139 6.06684 9.92593 5.58713 9.12875 5.43192C8.60671 5.33316 8.43034 5.14268 8.45856 4.78995C8.50089 4.38078 8.79719 4.15503 9.30512 4.15503Z" fill="#A7A7A7"/>
</g>
<defs>
<clipPath id="clip0_38_1224">
<rect width="16" height="16" fill="white"/>
</clipPath>
</defs>
</svg>
