<svg width="44" height="53" viewBox="0 0 44 53" fill="none" xmlns="http://www.w3.org/2000/svg">
<path fill-rule="evenodd" clip-rule="evenodd" d="M2 0.833252C0.895431 0.833252 0 1.72868 0 2.83325V42.8333C0 43.9378 0.895431 44.8333 2 44.8333H16.7077L22 52.1665L27.2924 44.8333H42C43.1046 44.8333 44 43.9378 44 42.8333V2.83325C44 1.72868 43.1046 0.833252 42 0.833252H2Z" fill="#F15C29"/>
<path d="M22.3826 25.2703C22.0253 25.6861 21.7089 26.0512 21.3822 26.4365C21.2087 26.2743 21.0964 26.183 20.9842 26.0715C18.4527 23.5463 15.9621 20.9806 13.3797 18.5062C11.6649 16.8734 11.277 14.9567 11.7771 12.7663C11.8588 12.391 11.9915 12.0158 12.1242 11.6507C12.3488 11.0321 12.9306 10.9206 13.4001 11.3871C19.9328 17.8977 26.4553 24.4083 32.9778 30.9291C33.7433 31.6897 33.9169 32.5212 33.529 33.3731C33.1819 34.1337 32.4062 34.6205 31.5692 34.5698C30.8751 34.5292 30.3647 34.1844 29.9156 33.6773C27.6291 31.1116 25.3325 28.5459 23.0358 25.9903C22.8521 25.7774 22.6582 25.5745 22.3826 25.2703Z" fill="white"/>
<path d="M32.7326 15.0378C33.0797 15.3826 33.3553 15.6767 33.6717 15.9911C33.5901 16.0925 33.5186 16.2041 33.4267 16.2953C31.9263 17.7962 30.4156 19.2768 28.9355 20.7879C28.1597 21.5789 27.1798 21.8426 26.1285 21.944C26.006 21.9541 25.8427 21.8426 25.7508 21.7513C24.8526 20.869 23.9645 19.9867 23.0969 19.0943C22.9846 18.9726 22.9234 18.7495 22.9336 18.567C22.9948 17.3196 23.5767 16.3461 24.4851 15.4841C25.8427 14.2063 27.139 12.8676 28.4558 11.5493C28.5783 11.4276 28.7007 11.3262 28.8436 11.1943C29.1499 11.5189 29.4357 11.8231 29.7827 12.1882C28.5578 13.3443 27.3023 14.5409 26.0162 15.768C26.4347 16.1737 26.7409 16.4576 27.0778 16.7821C28.2822 15.555 29.4867 14.328 30.7422 13.0502C31.1097 13.4457 31.4057 13.7601 31.7221 14.115C30.4972 15.3015 29.2519 16.488 27.976 17.7253C28.4047 18.0903 28.7314 18.3743 29.0886 18.6887C30.2523 17.5224 31.4669 16.3055 32.7326 15.0378Z" fill="white"/>
<path d="M17.3809 24.5605C18.3812 25.5341 19.3305 26.4671 20.392 27.5015C19.8613 27.9883 19.3101 28.4548 18.7997 28.9618C17.1869 30.554 15.5844 32.1664 13.9818 33.7687C13.4204 34.3265 12.7876 34.6713 11.971 34.509C10.3786 34.1947 9.73557 32.42 10.7665 31.1624C10.8686 31.0306 10.9911 30.9089 11.1136 30.7872C13.0938 28.8097 15.074 26.8423 17.044 24.8648C17.1665 24.7532 17.289 24.6417 17.3809 24.5605Z" fill="white"/>
</svg>
