<svg width="13" height="14" viewBox="0 0 13 14" fill="none" xmlns="http://www.w3.org/2000/svg">
<path d="M4.2 10.5L6.22222 8.47778L8.24444 10.5L9.33333 9.41111L7.31111 7.38889L9.33333 5.36667L8.24444 4.27778L6.22222 6.3L4.2 4.27778L3.11111 5.36667L5.13333 7.38889L3.11111 9.41111L4.2 10.5ZM2.33333 14C1.90556 14 1.53948 13.8478 1.23511 13.5434C0.930222 13.2386 0.777778 12.8722 0.777778 12.4444V2.33333H0V0.777778H3.88889V0H8.55556V0.777778H12.4444V2.33333H11.6667V12.4444C11.6667 12.8722 11.5145 13.2386 11.2101 13.5434C10.9052 13.8478 10.5389 14 10.1111 14H2.33333Z" fill="#4E2C28"/>
</svg>
