<svg width="16" height="16" viewBox="0 0 16 16" fill="none" xmlns="http://www.w3.org/2000/svg">
<g clip-path="url(#clip0_31:515)">
<path d="M6.45151 0C11.365 0 14.4828 5.25446 12.1305 9.59026C11.9844 9.86168 11.9983 10.0148 12.221 10.2305C13.3275 11.3162 14.4202 12.4298 15.5198 13.5294C15.8887 13.8982 16.0905 14.3228 15.9583 14.8447C15.7008 15.8539 14.5246 16.1809 13.766 15.4363C12.9796 14.6638 12.2071 13.8773 11.4276 13.0979C11.0657 12.736 10.6968 12.381 10.3489 12.0122C10.1958 11.8521 10.0844 11.8591 9.90345 11.9704C7.82951 13.2301 5.67901 13.3484 3.50763 12.2627C-0.716818 10.1679 -1.23878 4.16181 2.53329 1.32927C3.70249 0.452371 4.99697 0 6.45151 0ZM10.8291 6.47934C10.8221 4.05046 8.85952 2.09482 6.44456 2.10178C4.02959 2.1157 2.07396 4.09221 2.09484 6.51414C2.11572 8.94302 4.08527 10.8917 6.49327 10.8778C8.88736 10.8639 10.836 8.88038 10.8291 6.47934Z" fill="white"/>
</g>
<defs>
<clipPath id="clip0_31:515">
<rect width="16" height="15.8469" fill="white"/>
</clipPath>
</defs>
</svg>
