<svg width="44" height="44" viewBox="0 0 44 44" fill="none" xmlns="http://www.w3.org/2000/svg">
<circle cx="22" cy="22" r="22" fill="#F15C29"/>
<g clip-path="url(#clip0_1138_773)">
<path d="M20.4515 14C25.365 14 28.4829 19.2545 26.1305 23.5903C25.9844 23.8617 25.9983 24.0148 26.221 24.2305C27.3276 25.3162 28.4202 26.4298 29.5198 27.5294C29.8887 27.8982 30.0905 28.3228 29.9583 28.8447C29.7008 29.8539 28.5246 30.1809 27.766 29.4363C26.9796 28.6638 26.2071 27.8773 25.4276 27.0979C25.0657 26.736 24.6969 26.381 24.3489 26.0122C24.1958 25.8521 24.0844 25.8591 23.9035 25.9704C21.8295 27.2301 19.679 27.3484 17.5077 26.2627C13.2832 24.1679 12.7612 18.1618 16.5333 15.3293C17.7025 14.4524 18.997 14 20.4515 14ZM24.8291 20.4793C24.8221 18.0505 22.8595 16.0948 20.4446 16.1018C18.0296 16.1157 16.074 18.0922 16.0949 20.5141C16.1157 22.943 18.0853 24.8917 20.4933 24.8778C22.8874 24.8639 24.8361 22.8804 24.8291 20.4793Z" fill="white"/>
</g>
<defs>
<clipPath id="clip0_1138_773">
<rect width="16" height="15.8469" fill="white" transform="translate(14 14)"/>
</clipPath>
</defs>
</svg>
