<svg width="25" height="25" viewBox="0 0 25 25" fill="none" xmlns="http://www.w3.org/2000/svg">
<g clip-path="url(#clip0_503_661)">
<path d="M7.75729 0.00722213C6.96823 -0.0669966 6.23385 0.418355 6.03219 1.18496L5.30905 3.93251C14.4702 4.20058 20.6675 10.31 21.0551 19.411L23.8354 18.6405C24.603 18.4276 25.0801 17.6796 24.9887 16.8876C23.9692 8.06044 16.6396 0.845601 7.75729 0.00722213ZM4.90231 5.47597L0.0268199 24.0057C-0.00862331 24.1404 -0.00793962 24.2819 0.028802 24.4162C0.0655437 24.5505 0.137044 24.6727 0.23609 24.7705C0.335135 24.8683 0.458224 24.9382 0.592938 24.9733C0.727652 25.0083 0.869228 25.0072 1.00338 24.9701L19.5092 19.8383C19.3008 11.2987 13.4995 5.57363 4.90231 5.47792V5.47597ZM6.24997 20.3124C5.94093 20.3124 5.63884 20.2208 5.38189 20.0491C5.12494 19.8774 4.92467 19.6333 4.8064 19.3478C4.68814 19.0623 4.6572 18.7482 4.71749 18.4451C4.77778 18.142 4.92659 17.8636 5.14511 17.645C5.36363 17.4265 5.64204 17.2777 5.94514 17.2174C6.24823 17.1571 6.5624 17.1881 6.84791 17.3063C7.13342 17.4246 7.37745 17.6249 7.54914 17.8818C7.72083 18.1388 7.81247 18.4409 7.81247 18.7499C7.81247 19.1643 7.64785 19.5617 7.35482 19.8547C7.0618 20.1478 6.66437 20.3124 6.24997 20.3124ZM8.59372 12.8905C8.28468 12.8905 7.98259 12.7989 7.72564 12.6272C7.46869 12.4555 7.26842 12.2115 7.15016 11.926C7.03189 11.6405 7.00095 11.3263 7.06124 11.0232C7.12153 10.7201 7.27034 10.4417 7.48886 10.2232C7.70738 10.0046 7.98579 9.85583 8.28889 9.79554C8.59198 9.73525 8.90615 9.7662 9.19166 9.88446C9.47717 10.0027 9.7212 10.203 9.89289 10.4599C10.0646 10.7169 10.1562 11.019 10.1562 11.328C10.1562 11.7424 9.9916 12.1398 9.69857 12.4329C9.40555 12.7259 9.00812 12.8905 8.59372 12.8905ZM13.6718 17.9686C13.3628 17.9686 13.0607 17.877 12.8038 17.7053C12.5468 17.5336 12.3465 17.2896 12.2283 17.0041C12.11 16.7186 12.0791 16.4044 12.1394 16.1013C12.1997 15.7982 12.3485 15.5198 12.567 15.3013C12.7855 15.0828 13.0639 14.934 13.367 14.8737C13.6701 14.8134 13.9843 14.8443 14.2698 14.9626C14.5553 15.0808 14.7993 15.2811 14.971 15.5381C15.1427 15.795 15.2343 16.0971 15.2343 16.4061C15.2343 16.8205 15.0697 17.218 14.7767 17.511C14.4837 17.804 14.0862 17.9686 13.6718 17.9686Z" fill="#4E2C28"/>
</g>
<defs>
<clipPath id="clip0_503_661">
<rect width="25" height="25" fill="white"/>
</clipPath>
</defs>
</svg>
