<svg width="25" height="25" viewBox="0 0 25 25" fill="none" xmlns="http://www.w3.org/2000/svg">
<g clip-path="url(#clip0_503_669)">
<path d="M16.3358 24.9897C16.4599 23.5422 16.1187 22.3222 15.0744 21.3606C14.3921 20.73 13.5649 20.3888 12.6447 20.3577C11.4144 20.3267 10.4012 20.792 9.59471 21.7122C8.78825 22.6427 8.58147 23.749 8.67452 24.969C7.2684 24.969 5.945 24.9793 4.62159 24.9587C4.44582 24.9587 4.23904 24.8036 4.09429 24.6692C2.83292 23.4285 1.57155 22.1774 0.330852 20.9057C0.144748 20.7196 0.0206782 20.3888 0.0206782 20.1303C0 13.7304 0 7.3201 0 0.909843C0 0.268817 0.268817 0 0.920182 0C8.63317 0 16.3565 0 24.0695 0C24.7415 0 25 0.268817 25 0.9512C25 7.3201 25.0103 13.6993 24.9897 20.0682C24.9897 20.3681 24.8242 20.7506 24.6175 20.9678C23.4388 22.1981 22.2291 23.4078 20.9988 24.5864C20.7713 24.8036 20.3784 24.9587 20.0579 24.9793C18.8379 25.0207 17.6385 24.9897 16.3358 24.9897ZM19.5409 6.17246C19.3445 5.945 19.1791 5.66584 18.9413 5.45906C15.3122 2.41936 9.6981 2.41936 6.04839 5.43838C5.42804 5.95534 5.37634 6.19314 5.76923 6.8962C7.744 10.4839 9.72911 14.0716 11.7039 17.6592C11.89 17.9901 12.0968 18.3623 12.5 18.2589C12.7895 18.1865 13.0997 17.928 13.2548 17.6696C15.2709 14.0612 17.2663 10.4425 19.2618 6.82383C19.3652 6.64806 19.4272 6.45162 19.5409 6.17246Z" fill="#B0CB1F"/>
<path d="M14.7643 24.9792C13.1927 24.9792 11.6522 24.9792 10.1116 24.9792C9.8635 23.935 10.2047 22.8907 11.0008 22.3014C11.8176 21.7121 12.6861 21.6397 13.5649 22.1256C14.5265 22.6529 14.9193 23.6041 14.7643 24.9792Z" fill="#B0CB1F"/>
<path d="M10.0806 8.34357C10.3391 8.76747 10.6182 9.03629 11.0835 8.89154C11.5488 8.73646 11.6108 8.35391 11.5798 7.88865C12.3552 7.6922 13.11 7.77492 13.8544 8.01272C13.9578 8.04373 14.0198 8.25052 14.0612 8.38492C14.2369 8.8812 14.6815 9.10866 15.1158 8.83985C15.5707 8.55035 15.7775 8.94324 16.036 9.12934C16.1083 9.18104 16.0256 9.52223 15.9429 9.69799C15.3536 10.7939 14.7539 11.8692 14.1542 12.9548C14.0198 13.203 13.9061 13.3891 13.5442 13.3787C13.0686 13.3684 12.6964 13.8957 12.9342 14.2782C13.2134 14.7331 13.0273 15.0433 12.8205 15.3949C12.7068 15.581 12.6034 15.7774 12.4586 16.0359C12.3449 15.8705 12.2518 15.7567 12.1898 15.6327C11.5798 14.5367 10.9698 13.4408 10.3805 12.3241C10.2874 12.1484 10.2977 11.8795 10.3598 11.6831C10.5149 11.2178 10.3494 10.7009 9.88417 10.6699C9.39823 10.6492 9.26382 10.339 9.07772 10.0185C8.61246 9.1707 8.61246 9.1707 9.46027 8.68476C9.64637 8.56069 9.84282 8.46764 10.0806 8.34357ZM13.0273 12.0657C13.5959 12.0553 13.9475 11.7658 13.9268 11.3006C13.9061 10.8456 13.5649 10.5975 12.9652 10.6078C12.4069 10.6182 12.0967 10.8767 12.0967 11.3419C12.0967 11.8072 12.4379 12.0657 13.0273 12.0657Z" fill="#B0CB1F"/>
<path d="M17.773 6.32749C17.4525 6.91682 17.2044 7.38208 16.9149 7.89903C13.9062 5.76917 10.9285 5.7485 7.93016 7.91971C7.67168 7.44411 7.4132 7.03055 7.2271 6.5963C7.18574 6.50325 7.36151 6.23443 7.49592 6.15172C9.94629 4.56983 12.5724 4.19763 15.3433 5.15917C16.1704 5.44866 16.9355 5.92426 17.773 6.32749Z" fill="#B0CB1F"/>
</g>
<defs>
<clipPath id="clip0_503_669">
<rect width="25" height="25" fill="white"/>
</clipPath>
</defs>
</svg>
