<svg width="25" height="25" viewBox="0 0 25 25" fill="none" xmlns="http://www.w3.org/2000/svg">
<path d="M12.5 1.5625C6.48438 1.5625 1.5625 6.48438 1.5625 12.5C1.5625 18.5156 6.48438 23.4375 12.5 23.4375C18.5156 23.4375 23.4375 18.5156 23.4375 12.5C23.4375 6.48438 18.5156 1.5625 12.5 1.5625ZM12.5 3.99306C14.3837 3.99306 16.1458 4.66146 17.6042 5.69444L5.69444 17.6042C4.66146 16.1458 3.99306 14.3837 3.99306 12.5C3.99306 7.82118 7.82118 3.99306 12.5 3.99306ZM12.5 21.0069C10.6163 21.0069 8.85417 20.3385 7.39583 19.3056L19.3056 7.39583C20.3385 8.85417 21.0069 10.6163 21.0069 12.5C21.0069 17.1788 17.1788 21.0069 12.5 21.0069Z" fill="#F15C29"/>
</svg>
