<svg width="25" height="25" viewBox="0 0 25 25" fill="none" xmlns="http://www.w3.org/2000/svg">
<path d="M20.3125 0.78125H4.6875C2.53008 0.78125 0.78125 2.53008 0.78125 4.6875V20.3125C0.78125 22.4699 2.53008 24.2188 4.6875 24.2188H20.3125C22.4699 24.2188 24.2188 22.4699 24.2188 20.3125V4.6875C24.2188 2.53008 22.4699 0.78125 20.3125 0.78125ZM8.20312 15.2344H7.20586L5.21992 11.6676V15.2344H4.29688V9.76562H5.26445L7.28008 13.4172V9.76562H8.20312V15.2344ZM13.6719 15.2344H9.76562V9.76562H13.5742V10.6902H10.8023V11.9027H13.3805V12.8242H10.8023V14.3117H13.6719V15.2344ZM20.1828 15.2344H19.0352L17.9691 11.1457L16.9059 15.2344H15.7324L14.4531 9.76562H15.5609L16.3687 13.5215L17.3477 9.76562H18.634L19.573 13.5855L20.3957 9.76562H21.4844L20.1828 15.2344Z" fill="#F15C29"/>
</svg>
