<svg width="16" height="16" viewBox="0 0 16 16" fill="none" xmlns="http://www.w3.org/2000/svg">
<path d="M8.00113 0C5.7154 0 3.84692 1.86847 3.84692 4.1542C3.84692 6.43993 5.7154 8.3084 8.00113 8.3084C10.2869 8.3084 12.1553 6.43993 12.1553 4.1542C12.1553 1.86847 10.2869 0 8.00113 0Z" fill="#A7A7A7"/>
<path d="M15.1303 11.628C15.0215 11.3559 14.8764 11.1019 14.7131 10.8661C13.8786 9.63253 12.5907 8.81621 11.1394 8.61667C10.958 8.59854 10.7585 8.63479 10.6133 8.74364C9.85143 9.30601 8.94442 9.59625 8.00108 9.59625C7.05775 9.59625 6.15074 9.30601 5.38883 8.74364C5.24369 8.63479 5.04414 8.58038 4.86275 8.61667C3.4115 8.81621 2.10539 9.63253 1.28907 10.8661C1.1258 11.1019 0.980666 11.3741 0.871846 11.628C0.817436 11.7369 0.835561 11.8639 0.889971 11.9727C1.03511 12.2267 1.2165 12.4807 1.37976 12.6983C1.63372 13.043 1.90584 13.3514 2.21424 13.6416C2.4682 13.8956 2.75844 14.1314 3.04872 14.3673C4.48181 15.4376 6.20518 15.9999 7.98296 15.9999C9.76074 15.9999 11.4841 15.4375 12.9172 14.3673C13.2074 14.1496 13.4977 13.8956 13.7517 13.6416C14.0419 13.3514 14.3322 13.043 14.5862 12.6983C14.7675 12.4625 14.9308 12.2267 15.0759 11.9727C15.1666 11.8639 15.1847 11.7368 15.1303 11.628Z" fill="#A7A7A7"/>
</svg>
