<svg width="25" height="25" viewBox="0 0 25 25" fill="none" xmlns="http://www.w3.org/2000/svg">
<path d="M12.5017 0C8.93023 0 6.01074 2.91949 6.01074 6.49094C6.01074 10.0624 8.93023 12.9819 12.5017 12.9819C16.0731 12.9819 18.9926 10.0624 18.9926 6.49094C18.9926 2.91949 16.0731 0 12.5017 0Z" fill="#F15C29"/>
<path d="M23.6412 18.169C23.4712 17.7438 23.2444 17.347 22.9893 16.9785C21.6855 15.0511 19.673 13.7756 17.4055 13.4638C17.122 13.4355 16.8102 13.4921 16.5835 13.6622C15.393 14.5409 13.9758 14.9944 12.5018 14.9944C11.0279 14.9944 9.61064 14.5409 8.42016 13.6622C8.19338 13.4921 7.88158 13.4071 7.59816 13.4638C5.33058 13.7756 3.28978 15.0511 2.01428 16.9785C1.75918 17.347 1.5324 17.7722 1.36237 18.169C1.27736 18.3391 1.30568 18.5375 1.39069 18.7076C1.61747 19.1044 1.90089 19.5013 2.15599 19.8414C2.5528 20.38 2.97799 20.8618 3.45987 21.3153C3.85668 21.7121 4.31018 22.0806 4.76374 22.4491C7.00295 24.1214 9.69571 25.0001 12.4735 25.0001C15.2513 25.0001 17.944 24.1214 20.1832 22.4491C20.6367 22.109 21.0902 21.7121 21.4871 21.3153C21.9406 20.8618 22.3941 20.3799 22.791 19.8414C23.0744 19.4729 23.3296 19.1044 23.5563 18.7076C23.6979 18.5375 23.7263 18.3391 23.6412 18.169Z" fill="#F15C29"/>
</svg>
